<mxfile host="app.diagrams.net" modified="2023-07-09T07:49:33.936Z" agent="Mozilla/5.0 (Macintosh; Intel Mac OS X 10_15_7) AppleWebKit/537.36 (KHTML, like Gecko) Chrome/114.0.0.0 Safari/537.36" version="21.6.1" etag="bjQbQGX4ed3M4F8mTKJi" type="github">
  <diagram name="Page-1" id="cVreragcgw1TeTY5wZ4H">
    <mxGraphModel>
      <root>
        <mxCell id="0" />
        <mxCell id="1" parent="0" />
      </root>
    </mxGraphModel>
  </diagram>
</mxfile>
